<svg aria-hidden="true" fill="currentColor" height="48" viewBox="0 0 48 48" width="48" xmlns="http://www.w3.org/2000/svg" class="plexico-icon-nav-mobile-ico-11" style="width:auto;height:max(2rem,1rem)">
  <path d="M24 39a2.5 2.5 0 1 0 0-5 2.5 2.5 0 0 0 0 5" fill="#000000"/>
  <path clip-rule="evenodd" d="M9.88 44.12A3 3 0 0 0 12 45h24a3.003 3.003 0 0 0 3-3V6a3.003 3.003 0 0 0-3-3H12a3.004 3.004 0 0 0-3 3v36c0 .795.317 1.558.88 2.12M36 6H12v3h24zm0 6H12v30h24z" fill="#000000" fill-rule="evenodd"/>
</svg>