<svg xmlns="http://www.w3.org/2000/svg" viewBox="0 0 875 875" xml:space="preserve">
  <path fill="#010101" d="M876 833c0 1.714 0 3.429-.367 5.721-1.765 12.61-6.36 23.096-16.863 29.675-5.394 3.38-11.814 5.122-17.77 7.604-4.357 0-8.714 0-13.669-.348-11.057-2.707-19.092-8.792-26.546-16.263-73.325-73.491-146.768-146.865-220.183-220.267-1.152-1.152-2.371-2.239-3.666-3.456-1.66 1.22-3.12 2.284-4.57 3.362-91.618 68.057-193.398 89.05-303.869 62.03C185.232 680.69 118.39 634.035 68.01 564.487 28.881 510.469 7.267 449.915 2.002 383.467c-.066-.843-.656-1.645-1.002-2.467 0-15.354 0-30.708.379-46.728 2.105-14.358 3.204-28.165 5.664-41.725 12.196-67.213 41.34-126.311 87.823-176.261C160.186 46.094 241.2 8.19 337.393 1.975c9.87.08 19.275.097 28.68-.007 1.312-.015 2.618-.63 3.927-.968 1.067 0 2.133 0 3.785.386 24.543 1.925 48.313 4.907 71.535 11.11 71.821 19.183 132.305 56.583 180.964 112.978 28.612 33.16 50.272 70.384 64.923 111.551 17.781 49.966 23.977 101.457 18.953 154.34-4.779 50.308-19.716 97.377-44.825 141.097-8.923 15.538-19.496 30.128-29.885 46.021.452.321 1.813 1.028 2.847 2.062 74.233 74.213 148.463 148.43 222.586 222.752 3.826 3.836 7.466 8.223 9.86 13.019 2.573 5.152 3.572 11.09 5.257 16.684M620.176 285.315c-16.32-58.954-48.644-107.372-97.042-144.59-59.89-46.056-127.788-64.344-202.721-54.737-61.597 7.897-114.54 34.565-157.818 78.793-57.034 58.287-83.602 128.695-78.656 210.412 3.356 55.46 22.822 104.992 56.684 148.856 30.29 39.236 68.635 68.03 114.586 86.583 50.685 20.463 103.197 25.497 156.347 13.863 85.76-18.773 149.48-67.773 189.31-146.175 31.128-61.272 36.921-125.725 19.31-193.005"/>
  <path fill="#FFF" d="M876 832.531c-1.685-5.126-2.684-11.063-5.256-16.215-2.395-4.796-6.035-9.183-9.86-13.019-74.124-74.322-148.354-148.54-222.587-222.752-1.034-1.034-2.395-1.74-2.847-2.062 10.389-15.893 20.962-30.483 29.885-46.02 25.11-43.721 40.046-90.79 44.825-141.097 5.024-52.884-1.172-104.375-18.953-154.34-14.65-41.168-36.311-78.392-64.923-111.552C577.625 69.079 517.14 31.679 445.32 12.495c-23.222-6.202-46.992-9.184-71.135-11.109C541.278 1 708.557 1 876 1zM1 381.469c.346.353.936 1.155 1.002 1.998 5.265 66.448 26.879 127.002 66.008 181.02 50.38 69.548 117.222 116.204 200.487 136.57 110.471 27.021 212.251 6.028 303.87-62.03 1.45-1.077 2.91-2.14 4.57-3.361 1.294 1.217 2.513 2.304 3.665 3.456 73.415 73.402 146.858 146.776 220.183 220.267 7.454 7.471 15.49 13.556 26.082 16.263C551.757 876 276.516 876 1 876z"/>
  <path fill="#FEFEFE" d="M336.929 1.875c-95.728 6.316-176.744 44.22-242.063 114.41-46.483 49.95-75.627 109.05-87.823 176.262-2.46 13.56-3.559 27.367-5.664 41.257C1 223.073 1 112.145 1 1c111.687 0 223.375 0 335.56.222.497.223.369.653.369.653"/>
  <path fill="#FBFBFB" d="M841.469 876c5.487-2.482 11.907-4.225 17.301-7.604 10.504-6.579 15.098-17.066 16.863-29.247C876 851.258 876 863.516 876 876z"/>
  <path fill="#9C9C9C" d="M337.393 1.975c-.464-.1-.336-.53-.364-.753C347.688 1 358.375 1 369.53 1c-.84.338-2.146.953-3.458.968-9.405.104-18.81.086-28.68.007"/>
  <path d="M264 398.361c-13.302-.436-26.162 1.066-38.91-1.02-16.028-2.625-30.555-18.834-32.601-34.393-3.345-25.43 15.303-48.265 45.125-47.975 23.161.224 46.326.05 69.49.022 7.422-.009 7.598-.207 7.6-7.572.01-23.664-.065-47.327.025-70.99.055-14.45 5.037-26.713 16.888-35.58 12.698-9.501 26.758-11.188 41.065-5.003 14.037 6.068 22.559 17.075 24.812 32.62.723 4.99.773 9.947.778 14.934.022 21.83.098 43.661-.057 65.49-.032 4.55 1.604 6.196 6.124 6.174 22.663-.113 45.327-.065 67.99.023 5.983.024 11.988.157 17.83 1.775 20.306 5.62 31.967 24.021 30.784 42.09-1.617 24.71-22.031 39.203-40.935 39.34-24.662.177-49.326.055-73.989.07-7.647.005-7.734.088-7.737 7.921-.01 23.497.021 46.993-.015 70.49-.022 14.858-5.102 27.445-17.405 36.328-12.394 8.95-26.039 11.108-40.156 4.905-14.198-6.239-23.055-17.017-25.2-32.855-.72-5.323-.761-10.62-.767-15.943-.02-21.496-.118-42.994.06-64.49.039-4.729-1.43-6.524-6.309-6.446-14.66.235-29.326.085-44.49.085"/>
</svg>