<svg xmlns="http://www.w3.org/2000/svg" width="30" height="30" fill="none" style="cursor:default">
  <circle cx="15" cy="15" r="15" fill="#2E3C2C"/>
  <mask id="a" width="30" height="30" x="0" y="0" maskUnits="userSpaceOnUse" style="mask-type:alpha">
    <circle cx="15" cy="15" r="15" fill="#92C7E6"/>
  </mask>
  <g mask="url(#a)">
    <path fill="#58672E" d="M11.5 11.5V0l9-1 11 8.5-.5 20-16 4L8.5 29V16.5z"/>
    <path stroke="#8D9182" d="M17 30V8l3.5-4.5m0 0h3m-3 0v-4m5 4h-2m0 0v24"/>
    <path stroke="#BDB595" stroke-width="2" d="M.5 20H18l1-1h3l1.5-1 3-.5L31 15M-.5 16h17l2-1h3l2-1 3-.5L31 11"/>
    <circle cx="17" cy="4" r="1" fill="#52581D"/>
    <circle cx="14" cy="27" r="1" fill="#52581D"/>
    <circle cx="15.5" cy="25.5" r=".5" fill="#52581D"/>
    <circle cx="21" cy="12" r="1" fill="#52581D"/>
    <circle cx="15" cy="7" r="1" fill="#3E5036"/>
    <circle cx="27" cy="21" r="1" fill="#3E5036"/>
    <circle cx="15.5" cy="8.5" r=".5" fill="#856B48"/>
    <circle cx="27.5" cy="22.5" r=".5" fill="#856B48"/>
    <circle cx="15" cy="11" r="1" fill="#52581D"/>
    <circle cx="28" cy="19" r="1" fill="#52581D"/>
    <circle cx="19" cy="3" r="1" fill="#2C2D13"/>
    <circle cx="19" cy="10" r="1" fill="#2C2D13"/>
    <circle cx="13" cy="5" r="1" fill="#2C2D13"/>
    <circle cx="10" cy="28" r="1" fill="#3E5036"/>
    <circle cx="21" cy="6" r="1" fill="#56553C"/>
    <circle cx="15" cy="1" r="1" fill="#3E5036"/>
    <circle cx="19" cy="1" r="1" fill="#4E4B1F"/>
    <circle cx="26" cy="9" r="1" fill="#415D2C"/>
    <circle cx="20" cy="23" r="1" fill="#3B4019" transform="rotate(90 20 23)"/>
    <circle cx="21.5" cy="9.5" r=".5" fill="#5B5F3A"/>
    <circle cx="22.5" cy="8.5" r=".5" fill="#5B5F3A"/>
    <circle cx="15.5" cy="4.5" r=".5" fill="#445D38"/>
    <circle cx="12.5" cy="27.5" r=".5" fill="#4E4B1F"/>
    <circle cx="21.5" cy="8.5" r=".5" fill="#4E4B1F"/>
    <circle cx="28.5" cy="14.5" r=".5" fill="#4E4B1F"/>
    <circle cx="22.5" cy="7.5" r=".5" fill="#6E6E4A"/>
    <circle cx="15.5" cy="3.5" r=".5" fill="#4E4B1F"/>
    <circle cx="12.5" cy="26.5" r=".5" fill="#767D47"/>
    <circle cx="21.5" cy="7.5" r=".5" fill="#3E5036"/>
    <circle cx="26.5" cy="15.5" r=".5" fill="#3E5036"/>
    <circle cx="22.5" cy="6.5" r=".5" fill="#3E5036"/>
    <circle cx="15.5" cy="2.5" r=".5" fill="#56553C"/>
    <circle cx="16.5" cy="1.5" r=".5" fill="#445D38"/>
    <circle cx="16.5" cy="2.5" r=".5" fill="#3E5036"/>
    <circle cx="17.5" cy="1.5" r=".5" fill="#56553C"/>
    <circle cx="22.5" cy="5.5" r=".5" fill="#5B5F3A"/>
    <circle cx="16.5" cy=".5" r=".5" fill="#767D47"/>
    <circle cx="20.5" cy="7.5" r=".5" fill="#767D47"/>
    <circle cx="25.5" cy="15.5" r=".5" fill="#767D47"/>
    <circle cx="14.5" cy="2.5" r=".5" fill="#6D6F42"/>
    <circle cx="13.5" cy=".5" r=".5" fill="#6D6F42"/>
    <circle cx="13.5" cy="6.5" r=".5" fill="#3E5036"/>
    <circle cx="25.5" cy="20.5" r=".5" fill="#3E5036"/>
    <circle cx="14.5" cy="29.5" r=".5" fill="#56553C"/>
    <circle cx="14.5" cy="8.5" r=".5" fill="#4E4B1F"/>
    <circle cx="26.5" cy="22.5" r=".5" fill="#4E4B1F"/>
    <circle cx="14.5" cy="25.5" r=".5" fill="#4E4B1F"/>
    <circle cx="15.5" cy="22.5" r=".5" fill="#3E5036"/>
    <circle cx="12.5" cy="18.5" r=".5" fill="#3E5036"/>
    <circle cx="15.5" cy="17.5" r=".5" fill="#3E5036"/>
    <circle cx="15.875" cy="21.5" r=".5" fill="#767D47"/>
    <circle cx="13.5" cy="18.5" r=".5" fill="#767D47"/>
    <circle cx="14.5" cy="21.5" r=".5" fill="#5B5F3A"/>
    <circle cx="19.5" cy="7.5" r=".5" fill="#5B5F3A"/>
    <circle cx="24.5" cy="15.5" r=".5" fill="#5B5F3A"/>
    <circle cx="13.5" cy="2.5" r=".5" fill="#767D47"/>
    <circle cx="12.5" cy=".5" r=".5" fill="#445D38"/>
    <circle cx="12.5" cy="6.5" r=".5" fill="#56553C"/>
    <circle cx="24.5" cy="20.5" r=".5" fill="#56553C"/>
    <circle cx="24.5" cy="5.5" r=".5" fill="#56553C"/>
    <circle cx="13.5" cy="29.5" r=".5" fill="#445D38"/>
    <circle cx="13.5" cy="8.5" r=".5" fill="#56553C"/>
    <circle cx="25.5" cy="22.5" r=".5" fill="#56553C"/>
    <circle cx="13.5" cy="25.5" r=".5" fill="#4E4B1F"/>
    <circle cx="14.5" cy="22.5" r=".5" fill="#4E4B1F"/>
    <circle cx="14.5" cy="17.5" r=".5" fill="#4E4B1F"/>
    <circle cx="27.5" cy="7.5" r=".5" fill="#3E5036"/>
    <circle cx="21.5" cy="24.5" r=".5" fill="#56553C" transform="rotate(90 21.5 24.5)"/>
    <circle cx="21.5" cy="21.5" r=".5" fill="#5B5F3A" transform="rotate(90 21.5 21.5)"/>
    <circle cx="12.5" cy="8.5" r=".5" fill="#4E4B1F"/>
    <circle cx="24.5" cy="22.5" r=".5" fill="#4E4B1F"/>
    <circle cx="9.5" cy="25.5" r=".5" fill="#4E4B1F"/>
    <circle cx="12.5" cy="25.5" r=".5" fill="#3B4019"/>
    <circle cx="13.5" cy="22.5" r=".5" fill="#3B4019"/>
    <circle cx="13.5" cy="17.5" r=".5" fill="#3B4019"/>
    <circle cx="26.5" cy="7.5" r=".5" fill="#767D47"/>
    <circle cx="26.5" cy="19.5" r=".5" fill="#767D47"/>
    <circle cx="21.5" cy="23.5" r=".5" fill="#4E4B1F" transform="rotate(90 21.5 23.5)"/>
    <circle cx="21.5" cy="20.5" r=".5" fill="#4E4B1F" transform="rotate(90 21.5 20.5)"/>
    <circle cx="22.5" cy="20.5" r=".5" fill="#56553C" transform="rotate(90 22.5 20.5)"/>
    <circle cx="25.5" cy="6.5" r=".5" fill="#445D38"/>
    <circle cx="22.5" cy="22.5" r=".5" fill="#767D47" transform="rotate(90 22.5 22.5)"/>
    <circle cx="25.5" cy="10.5" r=".5" fill="#5B5F3A"/>
    <circle cx="18.5" cy="22.5" r=".5" fill="#3E5036" transform="rotate(90 18.5 22.5)"/>
    <circle cx="26.5" cy="10.5" r=".5" fill="#4E4B1F"/>
    <circle cx="19.5" cy="16.5" r=".5" fill="#4E4B1F"/>
    <circle cx="18.5" cy="23.5" r=".5" fill="#767D47" transform="rotate(90 18.5 23.5)"/>
    <circle cx="18.5" cy="27.5" r=".5" fill="#4E4B1F" transform="rotate(90 18.5 27.5)"/>
    <circle cx="21" cy="26.063" r=".5" fill="#445D38" transform="rotate(90 21 26.063)"/>
    <circle cx="27.5" cy="10.5" r=".5" fill="#56553C"/>
    <circle cx="20.5" cy="16.5" r=".5" fill="#56553C"/>
    <circle cx="18.5" cy="17.5" r=".5" fill="#6E6E4A"/>
    <circle cx="18.5" cy="24.5" r=".5" fill="#4E4B1F" transform="rotate(90 18.5 24.5)"/>
    <circle cx="18.5" cy="28.5" r=".5" fill="#445D38" transform="rotate(90 18.5 28.5)"/>
    <circle cx="21" cy="27.063" r=".5" fill="#4E4B1F" transform="rotate(90 21 27.063)"/>
    <circle cx="28.5" cy="10.5" r=".5" fill="#445D38"/>
    <circle cx="21.5" cy="16.5" r=".5" fill="#445D38"/>
    <circle cx="19.5" cy="17.5" r=".5" fill="#445D38"/>
    <circle cx="18.5" cy="25.5" r=".5" fill="#5B5F3A" transform="rotate(90 18.5 25.5)"/>
    <circle cx="18.5" cy="29.5" r=".5" fill="#5B5F3A" transform="rotate(90 18.5 29.5)"/>
    <circle cx="21" cy="28.063" r=".5" fill="#5B5F3A" transform="rotate(90 21 28.063)"/>
    <circle cx="19.5" cy="8.5" r=".5" fill="#4E4B1F"/>
    <circle cx="13.5" cy="3.5" r=".5" fill="#4E4B1F"/>
    <circle cx="10.5" cy="26.5" r=".5" fill="#4E4B1F"/>
    <circle cx="12.5" cy="1.5" r=".5" fill="#4E4B1F"/>
    <circle cx="12.5" cy="7.5" r=".5" fill="#6D6F42"/>
    <circle cx="24.5" cy="21.5" r=".5" fill="#6D6F42"/>
    <circle cx="24.5" cy="6.5" r=".5" fill="#6D6F42"/>
    <circle cx="9.5" cy="24.5" r=".5" fill="#3E5036"/>
    <circle cx="13.5" cy="9.5" r=".5" fill="#4E4B1F"/>
    <circle cx="25.5" cy="23.5" r=".5" fill="#4E4B1F"/>
    <circle cx="27.5" cy="8.5" r=".5" fill="#56553C"/>
    <circle cx="20.5" cy="24.5" r=".5" fill="#4E4B1F" transform="rotate(90 20.5 24.5)"/>
    <circle cx="20.5" cy="21.5" r=".5" fill="#4E4B1F" transform="rotate(90 20.5 21.5)"/>
    <circle cx="13.5" cy="10.5" r=".5" fill="#56553C"/>
    <circle cx="25.5" cy="24.5" r=".5" fill="#56553C"/>
    <circle cx="27.5" cy="9.5" r=".5" fill="#3E5036"/>
    <circle cx="25.5" cy="11.563" r=".5" fill="#3E5036"/>
    <circle cx="19.5" cy="24.5" r=".5" fill="#56553C" transform="rotate(90 19.5 24.5)"/>
    <circle cx="19.5" cy="21.5" r=".5" fill="#56553C" transform="rotate(90 19.5 21.5)"/>
    <circle cx="28.5" cy="9.5" r=".5" fill="#5B5F3A"/>
    <circle cx="19.5" cy="25.5" r=".5" fill="#4E4B1F" transform="rotate(90 19.5 25.5)"/>
    <circle cx="12.5" cy="9.5" r=".5" fill="#3E5036"/>
    <circle cx="24.5" cy="23.5" r=".5" fill="#3E5036"/>
    <circle cx="24.5" cy="8.5" r=".5" fill="#3E5036"/>
    <circle cx="9.5" cy="26.5" r=".5" fill="#56553C"/>
    <circle cx="22.5" cy="10.5" r=".5" fill="#7E704C"/>
    <circle cx="16.5" cy="5.5" r=".5" fill="#7E704C"/>
    <circle cx="13.5" cy="28.5" r=".5" fill="#7E704C"/>
    <circle cx="21.5" cy="10.5" r=".5" fill="#42421D"/>
    <circle cx="15.5" cy="5.5" r=".5" fill="#42421D"/>
    <circle cx="12.5" cy="28.5" r=".5" fill="#42421D"/>
    <circle cx="20.5" cy="10.5" r=".5" fill="#413E20"/>
    <circle cx="14.5" cy="5.5" r=".5" fill="#413E20"/>
    <circle cx="11.5" cy="28.5" r=".5" fill="#413E20"/>
    <circle cx="15.5" cy="29.5" r=".5" fill="#413E20"/>
    <circle cx="12.5" cy="21.5" r=".5" fill="#413E20" transform="rotate(90 12.5 21.5)"/>
    <circle cx="10.5" cy="21.5" r=".5" fill="#52581D" transform="rotate(90 10.5 21.5)"/>
    <circle cx="10.5" cy="17.5" r=".5" fill="#52581D" transform="rotate(90 10.5 17.5)"/>
    <circle cx="20.5" cy="8.5" r=".5" fill="#606033"/>
    <circle cx="14.5" cy="3.5" r=".5" fill="#606033"/>
    <circle cx="11.5" cy="26.5" r=".5" fill="#606033"/>
    <circle cx="15.5" cy="27.5" r=".5" fill="#606033"/>
    <circle cx="13.5" cy="21.5" r=".5" fill="#606033" transform="rotate(90 13.5 21.5)"/>
    <circle cx="11.5" cy="21.5" r=".5" fill="#50533A" transform="rotate(90 11.5 21.5)"/>
    <circle cx="11.5" cy="17.5" r=".5" fill="#50533A" transform="rotate(90 11.5 17.5)"/>
    <circle cx="13.5" cy="1.5" r=".5" fill="#606033"/>
    <circle cx="13.5" cy="7.5" r=".5" fill="#606033"/>
    <circle cx="25.5" cy="21.5" r=".5" fill="#606033"/>
    <circle cx="14.5" cy="9.5" r=".5" fill="#606033"/>
    <circle cx="26.5" cy="23.5" r=".5" fill="#606033"/>
    <circle cx="20.5" cy="9.5" r=".5" fill="#616228"/>
    <circle cx="14.5" cy="4.5" r=".5" fill="#616228"/>
    <circle cx="11.5" cy="27.5" r=".5" fill="#616228"/>
    <circle cx="15.5" cy="28.5" r=".5" fill="#616228"/>
    <path fill="#939189" d="m11.227 14.121 1.138-1.896a.25.25 0 0 1 .353-.08l1.123.75a.25.25 0 0 1 .099.286l-.383 1.148a.25.25 0 0 1-.237.171h-1.88a.25.25 0 0 1-.214-.379Zm3.383.049.333-1a.25.25 0 0 1 .237-.17h.57a.25.25 0 0 1 .25.25v1a.25.25 0 0 1-.25.25h-.903a.25.25 0 0 1-.237-.33M12.25 22h-2a.25.25 0 0 0-.25.25v2.88a.25.25 0 0 0 .343.233l2-.8a.25.25 0 0 0 .157-.232V22.25a.25.25 0 0 0-.25-.25m1.25 2.25v-1a.25.25 0 0 1 .25-.25h1.5a.25.25 0 0 1 .25.25v1a.25.25 0 0 1-.25.25h-1.5a.25.25 0 0 1-.25-.25m5.67 2.193 1-.333a.25.25 0 0 1 .33.237v1.473a.25.25 0 0 1-.17.237l-1 .333a.25.25 0 0 1-.33-.237V26.68a.25.25 0 0 1 .17-.237m2.33.667v-1.529a.25.25 0 0 1 .048-.147l.594-.814a.25.25 0 0 1 .452.147v2.072a.25.25 0 0 1-.146.228l-.594.271a.25.25 0 0 1-.354-.227Z"/>
  </g>
</svg>